<svg width="19" height="19" viewBox="0 0 19 19" fill="none" xmlns="http://www.w3.org/2000/svg">
<g id="icon/inventory">
<g id="Vector">
<path d="M3.6875 4.73047H5.1875V6.98047H12.6875V4.73047H14.1875V8.48047H15.6875V4.73047C15.6875 3.90547 15.0125 3.23047 14.1875 3.23047H11.0525C10.7375 2.36047 9.9125 1.73047 8.9375 1.73047C7.9625 1.73047 7.1375 2.36047 6.8225 3.23047H3.6875C2.8625 3.23047 2.1875 3.90547 2.1875 4.73047V15.2305C2.1875 16.0555 2.8625 16.7305 3.6875 16.7305H8.1875V15.2305H3.6875V4.73047ZM8.9375 3.23047C9.35 3.23047 9.6875 3.56797 9.6875 3.98047C9.6875 4.39297 9.35 4.73047 8.9375 4.73047C8.525 4.73047 8.1875 4.39297 8.1875 3.98047C8.1875 3.56797 8.525 3.23047 8.9375 3.23047Z" fill="#324376"/>
<path d="M15.6875 9.60547L11.57 13.7305L9.3125 11.4805L8.1875 12.6055L11.57 15.9805L16.8125 10.7305L15.6875 9.60547Z" fill="#324376"/>
</g>
</g>
</svg>
