<svg width="150" height="176" viewBox="0 0 150 176" fill="none" xmlns="http://www.w3.org/2000/svg">
<path d="M149.949 112.308C149.949 132.675 145.936 148.25 137.909 159.033C130.001 169.815 118.62 175.207 103.764 175.207H101.787V153.821H103.764C117.422 153.222 124.251 139.504 124.251 112.668V63.2475C124.251 36.291 117.422 22.6331 103.764 22.2736L101.787 22.0939V0.888184H103.764C118.74 0.888184 130.181 6.27947 138.088 17.0621C145.996 27.8446 149.949 43.3596 149.949 63.6069V112.308Z" fill="white" fill-opacity="0.2"/>
<path d="M0.617188 63.6069C0.617188 43.3596 4.5708 27.8446 12.478 17.0621C20.3853 6.27947 31.7669 0.888184 46.6229 0.888184H48.5997V22.0939L46.8026 22.2736C40.2132 22.5133 35.1215 26.0475 31.5273 32.8765C27.9331 39.7055 26.136 49.8291 26.136 63.2475V112.668C26.136 139.504 33.0248 153.222 46.8026 153.821H48.5997V175.207H46.6229C31.7669 175.207 20.3853 169.755 12.478 158.853C4.5708 148.07 0.617188 132.556 0.617188 112.308V63.6069Z" fill="white" fill-opacity="0.2"/>
<path d="M62.4648 43.9741V24.5654H88.5228V43.9741H62.4648ZM87.9836 144.791H63.004V55.8349H87.9836V144.791Z" fill="#F5DD90"/>
</svg>
