<svg width="19" height="19" viewBox="0 0 19 19" fill="none" xmlns="http://www.w3.org/2000/svg">
<g id="icon/phone">
<g id="Vector">
<path d="M5.465 8.82297C6.545 10.9455 8.285 12.678 10.4075 13.7655L12.0575 12.1155C12.26 11.913 12.56 11.8455 12.8225 11.9355C13.6625 12.213 14.57 12.363 15.5 12.363C15.9125 12.363 16.25 12.7005 16.25 13.113V15.7305C16.25 16.143 15.9125 16.4805 15.5 16.4805C8.4575 16.4805 2.75 10.773 2.75 3.73047C2.75 3.31797 3.0875 2.98047 3.5 2.98047H6.125C6.5375 2.98047 6.875 3.31797 6.875 3.73047C6.875 4.66797 7.025 5.56797 7.3025 6.40797C7.385 6.67047 7.325 6.96297 7.115 7.17297L5.465 8.82297Z" fill="#324376"/>
</g>
</g>
</svg>
